<svg width="137" height="38" viewBox="0 0 137 38" fill="none" xmlns="http://www.w3.org/2000/svg">
<path d="M22.1338 17.7234C22.1003 13.7138 25.4058 11.765 25.551 11.6754C23.6749 8.9426 20.7714 8.5618 19.7552 8.5282C17.3208 8.2706 14.9533 9.9954 13.7138 9.9954C12.4519 9.9954 10.5311 8.5618 8.47634 8.5954C5.82971 8.6402 3.33942 10.1746 1.98819 12.5714C-0.814776 17.4434 1.27349 24.6114 3.96479 28.5538C5.31602 30.4802 6.87943 32.6418 8.94536 32.5634C10.9555 32.485 11.7148 31.2754 14.1381 31.2754C16.5502 31.2754 17.2538 32.5634 19.3532 32.5186C21.5196 32.485 22.8709 30.581 24.1774 28.6322C25.7297 26.4258 26.355 24.2418 26.3774 24.1298C26.3215 24.1074 22.1785 22.517 22.1338 17.7234ZM18.1695 5.941C19.2527 4.5858 19.9897 2.7378 19.7887 0.856201C18.2253 0.923401 16.2599 1.9426 15.132 3.2754C14.1381 4.4514 13.2447 6.3666 13.4681 8.1698C15.2325 8.3042 17.0416 7.2738 18.1695 5.941ZM51.3025 32.2834H48.4884L46.9473 27.4226H41.5871L40.1242 32.2834H37.3882L42.6926 15.741H45.9758L51.3025 32.2834ZM46.4895 25.3842L45.0936 21.0722C44.9484 20.6242 44.6692 19.5938 44.2672 17.9586H44.2114C44.0439 18.6642 43.787 19.7058 43.4297 21.0722L42.0561 25.3842H46.4895ZM64.9377 26.1794C64.9377 28.2066 64.3905 29.8082 63.285 30.9842C62.3022 32.037 61.0738 32.5522 59.6221 32.5522C58.0475 32.5522 56.9196 31.9922 56.2273 30.861V37.1218H53.5807V24.2754C53.5807 22.9986 53.5472 21.6994 53.4801 20.3554H55.8029L55.9481 22.2482H55.9928C56.875 20.8258 58.215 20.109 60.0018 20.109C61.4089 20.109 62.5702 20.669 63.5083 21.7778C64.4687 22.8978 64.9377 24.3538 64.9377 26.1794ZM62.2464 26.269C62.2464 25.1042 61.9896 24.1522 61.4647 23.4018C60.8952 22.6178 60.1246 22.2258 59.1643 22.2258C58.5166 22.2258 57.9247 22.4498 57.3887 22.8754C56.8638 23.3122 56.5065 23.8722 56.3501 24.5778C56.2719 24.9026 56.2273 25.1714 56.2273 25.3842V27.3778C56.2273 28.2402 56.4953 28.9794 57.0202 29.573C57.545 30.1666 58.2374 30.469 59.0861 30.469C60.08 30.469 60.8505 30.077 61.4089 29.3154C61.9672 28.5426 62.2464 27.5346 62.2464 26.269ZM78.6063 26.1794C78.6063 28.2066 78.0592 29.8082 76.9536 30.9842C75.9709 32.037 74.7425 32.5522 73.2908 32.5522C71.7162 32.5522 70.5883 31.9922 69.8959 30.861V37.1218H67.2493V24.2754C67.2493 22.9986 67.2158 21.6994 67.1488 20.3554H69.4716L69.6168 22.2482H69.6614C70.5436 20.8258 71.8837 20.109 73.6704 20.109C75.0775 20.109 76.2389 20.669 77.1769 21.7778C78.1373 22.8978 78.6063 24.3538 78.6063 26.1794ZM75.9151 26.269C75.9151 25.1042 75.6582 24.1522 75.1334 23.4018C74.5638 22.6178 73.7933 22.2258 72.8329 22.2258C72.1852 22.2258 71.5934 22.4498 71.0573 22.8754C70.5325 23.3122 70.1863 23.8722 70.0188 24.5778C69.9406 24.9026 69.8959 25.1714 69.8959 25.3842V27.3778C69.8959 28.2402 70.1639 28.9794 70.6888 29.573C71.2137 30.1666 71.906 30.469 72.7547 30.469C73.7486 30.469 74.5303 30.077 75.0775 29.3154C75.647 28.5426 75.9151 27.5346 75.9151 26.269ZM93.9054 27.6466C93.9054 29.0578 93.4141 30.2002 92.4425 31.085C91.3705 32.0482 89.8741 32.5298 87.9533 32.5298C86.1777 32.5298 84.7595 32.1826 83.6874 31.4994L84.3016 29.293C85.463 29.9762 86.7361 30.3234 88.1208 30.3234C89.1147 30.3234 89.8964 30.0994 90.4436 29.6514C91.0019 29.2034 91.2811 28.5986 91.2811 27.8482C91.2811 27.1762 91.0466 26.6162 90.5999 26.157C90.1421 25.6978 89.3827 25.2722 88.3218 24.8802C85.4072 23.7938 83.9666 22.2146 83.9666 20.1426C83.9666 18.7874 84.4803 17.6786 85.4965 16.805C86.5127 15.9426 87.864 15.5058 89.5502 15.5058C91.0466 15.5058 92.2973 15.7634 93.2912 16.2898L92.6212 18.4402C91.6831 17.9362 90.6334 17.6786 89.4497 17.6786C88.5228 17.6786 87.7858 17.9138 87.2609 18.3618C86.8254 18.7762 86.6021 19.269 86.6021 19.8626C86.6021 20.5122 86.8589 21.061 87.3614 21.4754C87.797 21.8674 88.601 22.293 89.7624 22.7522C91.1806 23.3234 92.2192 23.9954 92.8892 24.7682C93.5704 25.541 93.9054 26.5042 93.9054 27.6466ZM102.66 22.349H99.7459V28.1394C99.7459 29.6066 100.26 30.3458 101.287 30.3458C101.756 30.3458 102.147 30.301 102.459 30.2226L102.538 32.2386C102.013 32.429 101.332 32.5298 100.483 32.5298C99.4332 32.5298 98.6291 32.205 98.0373 31.5666C97.4454 30.9282 97.1551 29.853 97.1551 28.3522V22.3378H95.4241V20.3554H97.1551V18.1714L99.7459 17.3874V20.3554H102.66V22.349ZM115.771 26.2242C115.771 28.061 115.246 29.5618 114.207 30.7378C113.113 31.9474 111.661 32.5522 109.852 32.5522C108.11 32.5522 106.714 31.9698 105.676 30.8162C104.637 29.6626 104.123 28.1954 104.123 26.4258C104.123 24.5778 104.659 23.0658 105.72 21.8898C106.792 20.7138 108.233 20.1202 110.042 20.1202C111.784 20.1202 113.191 20.7026 114.252 21.8674C115.268 22.9874 115.771 24.4434 115.771 26.2242ZM113.035 26.2802C113.035 25.1826 112.8 24.253 112.331 23.469C111.773 22.517 110.98 22.0466 109.953 22.0466C108.892 22.0466 108.077 22.517 107.529 23.469C107.049 24.253 106.826 25.205 106.826 26.3362C106.826 27.4338 107.06 28.3746 107.529 29.1474C108.099 30.0994 108.903 30.5698 109.93 30.5698C110.935 30.5698 111.728 30.0882 112.309 29.125C112.789 28.3186 113.035 27.3778 113.035 26.2802ZM124.37 22.685C124.113 22.6402 123.834 22.6178 123.532 22.6178C122.605 22.6178 121.879 22.965 121.377 23.6706C120.941 24.2866 120.718 25.0818 120.718 26.0226V32.2834H118.071V24.1074C118.071 22.7298 118.049 21.4754 117.993 20.3554H120.294L120.394 22.6402H120.472C120.751 21.8562 121.187 21.2178 121.79 20.7474C122.382 20.3218 123.018 20.109 123.7 20.109C123.945 20.109 124.169 20.1314 124.358 20.1538L124.37 22.685ZM136.184 25.7538C136.184 26.2242 136.151 26.6274 136.084 26.9522H128.155C128.189 28.1282 128.568 29.0354 129.305 29.6514C129.975 30.2002 130.835 30.4802 131.896 30.4802C133.069 30.4802 134.141 30.2898 135.101 29.9202L135.514 31.757C134.387 32.2498 133.058 32.4962 131.528 32.4962C129.685 32.4962 128.233 31.9474 127.184 30.861C126.134 29.7746 125.609 28.3074 125.609 26.4818C125.609 24.6898 126.1 23.189 127.083 21.9906C128.111 20.7138 129.495 20.0754 131.237 20.0754C132.946 20.0754 134.253 20.7138 135.124 21.9906C135.827 23.021 136.184 24.2642 136.184 25.7538ZM133.661 25.0706C133.683 24.2866 133.504 23.6034 133.147 23.0322C132.689 22.293 131.986 21.9234 131.048 21.9234C130.188 21.9234 129.484 22.2818 128.948 22.9986C128.513 23.5698 128.245 24.2642 128.166 25.0594L133.661 25.0706Z" fill="black"/>
</svg>
