<svg width="10" height="10" viewBox="0 0 10 10" fill="none" xmlns="http://www.w3.org/2000/svg">
<path d="M4.99994 7.81701L2.82794 8.95501C2.76349 8.98855 2.69098 9.00352 2.6185 8.99825C2.54603 8.99297 2.47645 8.96766 2.41754 8.92513C2.35862 8.8826 2.31268 8.82453 2.28485 8.75741C2.25702 8.69028 2.2484 8.61675 2.25994 8.54501L2.67494 6.13401L0.917945 4.42701C0.865502 4.37631 0.82837 4.31189 0.810787 4.2411C0.793204 4.1703 0.79588 4.096 0.818507 4.02665C0.841135 3.95731 0.882804 3.89572 0.938757 3.84893C0.99471 3.80213 1.06269 3.77201 1.13495 3.76201L3.56294 3.41001L4.64894 1.21701C4.68142 1.15169 4.73148 1.09673 4.79349 1.05831C4.8555 1.0199 4.927 0.999542 4.99994 0.999542C5.07289 0.999542 5.14439 1.0199 5.2064 1.05831C5.26841 1.09673 5.31847 1.15169 5.35094 1.21701L6.43694 3.41001L8.86494 3.76201C8.93698 3.77237 9.00469 3.80268 9.06039 3.84952C9.1161 3.89636 9.15759 3.95786 9.18017 4.02705C9.20275 4.09624 9.20551 4.17037 9.18816 4.24105C9.1708 4.31173 9.13401 4.37615 9.08194 4.42701L7.32494 6.13401L7.73894 8.54401C7.75137 8.61587 7.74339 8.68978 7.71592 8.75735C7.68845 8.82491 7.64259 8.88341 7.58353 8.92622C7.52448 8.96902 7.45461 8.99441 7.38186 8.9995C7.3091 9.00459 7.23638 8.98917 7.17194 8.95501L4.99994 7.81701Z" stroke="#0D0D0D" stroke-width="1.5" stroke-linecap="round" stroke-linejoin="round"/>
</svg>
